Normalized EMG Linear Envelopes
nRows=111
nColumns=4

endheader
time	 med_gas_r	  soleus_r	 tib_ant_r	
2.43347	  0.003323	  0.005441	  0.001588	
2.50504	  0.003297	  0.005379	  0.001582	
2.57661	  0.003309	  0.005412	  0.001584	
2.64819	  0.003506	  0.005625	  0.001625	
2.71976	  0.003823	  0.005861	  0.001676	
2.79133	  0.004021	  0.005961	  0.001702	
2.8629	  0.004068	  0.005973	  0.001695	
2.93448	  0.004019	  0.005928	  0.001644	
3.00605	  0.003792	  0.005895	  0.001584	
3.07762	  0.003502	  0.005865	  0.001542	
3.14919	  0.003307	  0.005806	  0.001510	
3.22077	  0.003285	  0.005724	  0.001490	
3.29234	  0.003373	  0.005587	  0.001505	
3.36391	  0.003449	  0.005475	  0.001550	
3.43548	  0.003516	  0.005415	  0.001577	
3.50706	  0.003591	  0.005470	  0.001593	
3.57863	  0.003619	  0.005685	  0.001601	
3.6502	  0.003574	  0.005883	  0.001581	
3.72177	  0.003507	  0.005937	  0.001535	
3.79335	  0.003486	  0.005857	  0.001529	
3.86492	  0.003486	  0.005827	  0.001593	
3.93649	  0.003556	  0.005871	  0.001688	
4.00806	  0.003644	  0.005962	  0.001744	
4.07964	  0.003703	  0.006015	  0.001787	
4.15121	  0.003815	  0.005937	  0.001809	
4.22278	  0.003991	  0.005955	  0.001823	
4.29435	  0.004226	  0.006135	  0.001796	
4.36593	  0.004240	  0.006146	  0.001735	
4.4375	  0.003178	  0.005051	  0.001632	
4.50907	 -0.000159	  0.001700	  0.001467	
4.58065	 -0.006139	 -0.004296	  0.001245	
4.65222	 -0.012327	 -0.010537	  0.001100	
4.72379	 -0.009921	 -0.008282	  0.001411	
4.79536	  0.019356	  0.020928	  0.002861	
4.86694	  0.099281	  0.101726	  0.006223	
4.93851	  0.237947	  0.244052	  0.011508	
5.01008	  0.384125	  0.393951	  0.016319	
5.08165	  0.464864	  0.457798	  0.017938	
5.15323	  0.475841	  0.456674	  0.018755	
5.2248	  0.454478	  0.444362	  0.020491	
5.29637	  0.430264	  0.419675	  0.021570	
5.36794	  0.421862	  0.403031	  0.021632	
5.43952	  0.443077	  0.398127	  0.021964	
5.51109	  0.498779	  0.406638	  0.022798	
5.58266	  0.568059	  0.424617	  0.024151	
5.65423	  0.604932	  0.442594	  0.026099	
5.72581	  0.600986	  0.459639	  0.027539	
5.79738	  0.606811	  0.473712	  0.028267	
5.86895	  0.636763	  0.499858	  0.029014	
5.94052	  0.654096	  0.523173	  0.029593	
6.0121	  0.679665	  0.548617	  0.031091	
6.08367	  0.713177	  0.563330	  0.032947	
6.15524	  0.753463	  0.561422	  0.034621	
6.22681	  0.799740	  0.552988	  0.035413	
6.29839	  0.823454	  0.559115	  0.035994	
6.36996	  0.812411	  0.567286	  0.036102	
6.44153	  0.778741	  0.556793	  0.035600	
6.5131	  0.736553	  0.534091	  0.035433	
6.58468	  0.710347	  0.508444	  0.035732	
6.65625	  0.708554	  0.496987	  0.035538	
6.72782	  0.731405	  0.505084	  0.034318	
6.7994	  0.757031	  0.512491	  0.032827	
6.87097	  0.744085	  0.515478	  0.031835	
6.94254	  0.696630	  0.524428	  0.030990	
7.01411	  0.671062	  0.530734	  0.031197	
7.08569	  0.661944	  0.530445	  0.031810	
7.15726	  0.665016	  0.538188	  0.032271	
7.22883	  0.692962	  0.527543	  0.032425	
7.3004	  0.712264	  0.510829	  0.032108	
7.37198	  0.707491	  0.514360	  0.031814	
7.44355	  0.694954	  0.545862	  0.032215	
7.51512	  0.686706	  0.591723	  0.033454	
7.58669	  0.693779	  0.624248	  0.035117	
7.65827	  0.711207	  0.630557	  0.035952	
7.72984	  0.722349	  0.618286	  0.035812	
7.80141	  0.722403	  0.602726	  0.034834	
7.87298	  0.705472	  0.583566	  0.032935	
7.94456	  0.694034	  0.567741	  0.031718	
8.01613	  0.696808	  0.574141	  0.031726	
8.0877	  0.713225	  0.610199	  0.032518	
8.15927	  0.726907	  0.642826	  0.033147	
8.23085	  0.722831	  0.657262	  0.033379	
8.30242	  0.695109	  0.667399	  0.033210	
8.37399	  0.659499	  0.682951	  0.033703	
8.44556	  0.632135	  0.702788	  0.034721	
8.51714	  0.599593	  0.720294	  0.034857	
8.58871	  0.571358	  0.722213	  0.033885	
8.66028	  0.553044	  0.691291	  0.031511	
8.73185	  0.566537	  0.675834	  0.029216	
8.80343	  0.593722	  0.689537	  0.027688	
8.875	  0.623032	  0.700037	  0.028093	
8.94657	  0.677192	  0.711134	  0.030679	
9.01815	  0.772474	  0.728911	  0.034519	
9.08972	  0.862318	  0.746584	  0.038788	
9.16129	  0.923384	  0.760640	  0.042183	
9.23286	  0.946072	  0.772214	  0.044449	
9.30444	  0.926383	  0.751146	  0.045349	
9.37601	  0.862732	  0.706075	  0.045081	
9.44758	  0.714997	  0.629303	  0.041230	
9.51915	  0.468833	  0.481649	  0.032216	
9.59073	  0.223065	  0.305684	  0.021314	
9.6623	  0.064799	  0.156669	  0.012659	
9.73387	 -0.004589	  0.062882	  0.006914	
9.80544	 -0.020359	  0.015042	  0.003623	
9.87702	 -0.014563	 -0.001909	  0.002094	
9.94859	 -0.005257	 -0.003516	  0.001545	
10.0202	  0.001047	 -0.000082	  0.001461	
10.0917	  0.004084	  0.003326	  0.001549	
10.1633	  0.005260	  0.005233	  0.001635	
10.2349	  0.005298	  0.005891	  0.001675	
10.3065	  0.004608	  0.005934	  0.001706	
